<svg xmlns="http://www.w3.org/2000/svg" xmlns:xlink="http://www.w3.org/1999/xlink" xml:space="preserve" version="1.1" style="shape-rendering:geometricPrecision;text-rendering:geometricPrecision;image-rendering:optimizeQuality;" viewBox="0 0 1.175 1.46875" x="0px" y="0px" fill-rule="evenodd" clip-rule="evenodd"><defs><style type="text/css">
   
    .fil0 {fill:none}
    .fil1 {fill:black;fill-rule:nonzero}
   
  </style></defs><g><g><rect class="fil0" width="1.175" height="1.175"/><path class="fil1" d="M0.796 0.569l0.36 0c0.01,0 0.019,0.008 0.019,0.018l0 0.569c0,0.01 -0.009,0.019 -0.019,0.019l-0.379 0 -0.379 0 -0.379 0c-0.011,0 -0.019,-0.009 -0.019,-0.019l0 -0.758c0,-0.01 0.008,-0.019 0.019,-0.019l0.36 0 0 -0.36c0,-0.011 0.009,-0.019 0.019,-0.019l0.379 0c0.01,0 0.019,0.008 0.019,0.019l0 0.55zm-0.417 0.568l0 -0.72 -0.341 0 0 0.72 0.341 0zm0.379 0l0 -0.55 0 -0.549 -0.341 0 0 0.36 0 0.739 0.341 0zm0.379 -0.531l-0.341 0 0 0.531 0.341 0 0 -0.531z"/></g></g><text x="0" y="16.175" fill="#000000" font-size="5px" font-weight="bold" font-family="'Helvetica Neue', Helvetica, Arial-Unicode, Arial, Sans-serif">Created by Deemak Daksina</text><text x="0" y="21.175" fill="#000000" font-size="5px" font-weight="bold" font-family="'Helvetica Neue', Helvetica, Arial-Unicode, Arial, Sans-serif">from the Noun Project</text></svg>